<svg width="64" height="64" viewBox="0 0 64 64" fill="none" xmlns="http://www.w3.org/2000/svg">
<g clip-path="url(#clip0_176_2)">
<mask id="mask0_176_2" style="mask-type:luminance" maskUnits="userSpaceOnUse" x="0" y="0" width="64" height="64">
<path d="M64 0H0V64H64V0Z" fill="white"/>
</mask>
<g mask="url(#mask0_176_2)">
<path d="M32 64C49.7334 64 64 49.7334 64 32C64 14.2666 49.7334 0 32 0C14.2666 0 0 14.2666 0 32C0 49.7334 14.2666 64 32 64Z" fill="#051212"/>
<path d="M32 64C49.7334 64 64 49.7334 64 32C64 14.2666 49.7334 0 32 0C14.2666 0 0 14.2666 0 32C0 49.7334 14.2666 64 32 64Z" fill="url(#paint0_linear_176_2)"/>
<path d="M4.8 32C4.8 39.3638 7.74612 46.02 12.4914 50.907L12.9562 51.3742C17.8323 56.1616 24.3416 59.0176 31.3234 59.1914L32 59.2C39.0106 59.2 45.5862 56.4934 50.5664 51.8312L51.043 51.3742C56.06 46.4486 59.2 39.6012 59.2 32C59.2 24.3988 56.06 17.5515 51.043 12.6258L50.5664 12.1688C45.5862 7.50686 39.0106 4.8 32 4.8V4L32.6976 4.0086C39.6546 4.18192 46.1536 6.94274 51.1126 11.5844L51.604 12.0547C56.605 16.9647 59.796 23.7346 59.9906 31.2688L60 32C60 39.5822 56.965 46.4354 52.082 51.464L51.604 51.9446C46.4252 57.029 39.4522 60 32 60L31.3032 59.9914C24.1134 59.8124 17.4129 56.8702 12.3961 51.9446C7.23396 46.8762 4 39.8268 4 32L4.00936 31.2688C4.20388 23.7348 7.39524 16.9647 12.3961 12.0547L12.8867 11.5844C18.0108 6.7877 24.7802 4.00008 32 4V4.8C24.7628 4.80008 17.9895 7.684 12.9562 12.6258L12.4914 13.093C7.74616 17.98 4.8 24.6364 4.8 32Z" fill="url(#paint1_linear_176_2)"/>
<path d="M0.800003 32C0.800003 40.447 4.1798 48.0822 9.62266 53.6874L10.1555 54.2234C15.7481 59.7144 23.2146 62.9912 31.2234 63.1906L32 63.2C40.042 63.2 47.5846 60.0952 53.2968 54.7476L53.8438 54.2234C59.5982 48.5738 63.2 40.7192 63.2 32C63.2 23.2808 59.5982 15.4263 53.8438 9.77656L53.2968 9.25234C47.5846 3.90518 40.042 0.799999 32 0.799999V0L32.7968 0.0101548C40.7478 0.208139 48.1756 3.36308 53.843 8.66798L54.404 9.20548C60.1194 14.8168 63.7666 22.5538 63.989 31.164L64 32C64 40.6654 60.5314 48.4974 54.9508 54.2446L54.404 54.7946C48.4854 60.6054 40.5166 64 32 64L31.2032 63.9898C22.9866 63.7852 15.3287 60.4236 9.5953 54.7946C3.69574 49.0022 -7.8198e-07 40.9448 0 32L0.0109406 31.164C0.233289 22.5538 3.8801 14.8168 9.59532 9.20546L10.1563 8.66796C16.0124 3.18602 23.7488 8.3202e-05 32 0V0.799999C23.6982 0.800087 15.9285 4.10842 10.1555 9.77656L9.62266 10.3125C4.17984 15.9179 0.800003 23.5532 0.800003 32Z" fill="#21F1A6"/>
<path d="M60 31.9998C60 24.4252 56.9724 17.5767 52.082 12.5404L51.6032 12.0592C46.5762 7.12358 39.8762 4.1871 32.696 4.0084L32 3.9998C24.791 3.99982 18.0235 6.78152 12.8899 11.5873L12.3977 12.0592C7.22667 17.1361 4.00004 24.181 4.00004 31.9998C4.00004 39.8182 7.22616 46.8634 12.3969 51.9404C17.5862 57.035 24.5584 59.9998 32 59.9998V63.1998L31.2226 63.1904C23.4706 62.9974 16.2287 59.9206 10.7032 54.7482L10.1563 54.224C4.40402 48.5764 0.800049 40.721 0.800049 31.9998C0.800049 23.551 4.18236 15.9149 9.62348 10.3115L10.1563 9.77558C15.9268 4.10996 23.6962 0.799819 32 0.799805L32.7766 0.809181C40.7878 1.00867 48.2544 4.287 53.8446 9.77558C59.5966 15.4231 63.2 23.2786 63.2 31.9998C63.2 40.721 59.5966 48.5764 53.8446 54.224L53.2976 54.7482C47.5878 60.0932 40.045 63.1998 32 63.1998V59.9998C39.4424 59.9998 46.4142 57.036 51.6032 51.9412L52.082 51.4592C56.9724 46.4228 60 39.5744 60 31.9998Z" fill="url(#paint2_linear_176_2)"/>
<path d="M31.9998 11.2002C37.5362 11.2002 42.7162 13.4069 46.5632 17.184C50.3978 20.949 52.7999 26.186 52.7999 32.0002C52.7999 37.8144 50.3978 43.0514 46.5632 46.8166C42.7162 50.5936 37.5362 52.8002 31.9998 52.8002C26.4638 52.8002 21.2844 50.5934 17.4373 46.8166C13.6025 43.0514 11.2 37.8144 11.2 32.0002C11.2 26.186 13.6025 20.949 17.4373 17.184C21.2844 13.4069 26.4638 11.2002 31.9998 11.2002Z" fill="#051212"/>
<path d="M52 32.0002C52 26.5862 49.8342 21.6924 46.3446 18.0986L46.0023 17.7549C42.4163 14.2342 37.6306 12.1343 32.4976 12.0064L32 12.0002C26.8458 12.0002 22.011 13.9902 18.3484 17.4189L17.9976 17.7549C14.3081 21.3772 12 26.4116 12 32.0002C12 37.5886 14.3081 42.6232 17.9976 46.2456L18.3484 46.5822C22.011 50.0106 26.846 52.0002 32 52.0002V52.8002L31.482 52.794C26.3138 52.6652 21.4854 50.6142 17.8015 47.1658L17.4375 46.8166C13.7225 43.1694 11.3516 38.1404 11.207 32.544L11.2 32.0002C11.2 26.3678 13.4547 21.2772 17.082 17.5416L17.4375 17.1838C21.2844 13.4068 26.4642 11.2002 32 11.2002L32.518 11.2064C37.8588 11.3395 42.8366 13.5248 46.5632 17.1838C50.398 20.9488 52.7999 26.186 52.7999 32.0002L52.7929 32.5432C52.6485 38.14 50.2782 43.1692 46.5632 46.8166L46.1983 47.1658C42.3919 50.7292 37.3632 52.8002 32 52.8002V52.0002C37.3208 52.0002 42.3007 49.8798 46.0023 46.2456L46.3446 45.9018C49.834 42.3078 52 37.414 52 32.0002Z" fill="url(#paint3_linear_176_2)"/>
<path d="M40 36.7598C40 32.461 37.4926 30.9872 32.4776 30.3732C28.8954 29.8818 28.179 28.8994 28.179 27.1796C28.179 25.46 29.3732 24.3548 31.7612 24.3548C33.9104 24.3548 35.1046 25.0918 35.7014 26.9342C35.821 27.3026 36.1792 27.5482 36.5374 27.5482H38.4476C38.9254 27.5482 39.2836 27.1796 39.2836 26.6886V26.5656C38.8058 23.8634 36.6566 21.7756 33.9104 21.53V18.5824C33.9104 18.091 33.5522 17.7225 32.9552 17.5996H31.1642C30.6866 17.5996 30.3282 17.9681 30.2088 18.5824V21.4072C26.6266 21.8986 24.3582 24.3548 24.3582 27.4254C24.3582 31.4786 26.7462 33.075 31.7612 33.6894C35.1046 34.3034 36.1792 35.0404 36.1792 37.0056C36.1792 38.9708 34.5074 40.3218 32.2388 40.3218C29.1342 40.3218 28.0596 38.9704 27.7014 37.1282C27.5822 36.637 27.224 36.3912 26.8656 36.3912H24.8356C24.3582 36.3912 24 36.7598 24 37.251V37.374C24.4774 40.4444 26.388 42.6552 30.3284 43.2694V46.2172C30.3284 46.7082 30.6866 47.0766 31.2834 47.1996H33.0744C33.5522 47.1996 33.9104 46.8312 34.03 46.2172V43.2694C37.612 42.6552 40 40.0758 40 36.7598Z" fill="#21F1A6"/>
</g>
</g>
<defs>
<linearGradient id="paint0_linear_176_2" x1="0" y1="32" x2="64" y2="32" gradientUnits="userSpaceOnUse">
<stop stop-color="#97FCE4"/>
<stop offset="1" stop-color="#97FCE4" stop-opacity="0.2"/>
</linearGradient>
<linearGradient id="paint1_linear_176_2" x1="2.72916" y1="32.721" x2="55.2036" y2="32.721" gradientUnits="userSpaceOnUse">
<stop stop-color="#21F1A6" stop-opacity="0.6"/>
<stop offset="1" stop-color="#21F1A6" stop-opacity="0.2"/>
</linearGradient>
<linearGradient id="paint2_linear_176_2" x1="64.616" y1="31.1964" x2="-40.8" y2="31.1964" gradientUnits="userSpaceOnUse">
<stop stop-color="#051212"/>
<stop offset="1" stop-color="#051212" stop-opacity="0.76"/>
</linearGradient>
<linearGradient id="paint3_linear_176_2" x1="53.744" y1="31.4646" x2="14.763" y2="31.4646" gradientUnits="userSpaceOnUse">
<stop stop-color="#21F1A6"/>
<stop offset="1" stop-color="#21F1A6" stop-opacity="0"/>
</linearGradient>
<clipPath id="clip0_176_2">
<rect width="64" height="64" fill="white"/>
</clipPath>
</defs>
</svg>
